<svg width="24" height="24" viewBox="0 0 24 24" fill="none" xmlns="http://www.w3.org/2000/svg">
<path d="M18.217 4.14697C18.4938 4.04576 18.7434 4.06694 18.9954 4.36182C19.2472 4.65659 19.2302 4.90606 19.0872 5.16357L15.7522 11.0659C15.6236 11.2974 15.4143 11.473 15.1633 11.5591L13.6584 12.0747L19.4797 18.9185C19.6713 19.1437 19.6433 19.4817 19.4172 19.6724C19.1925 19.8618 18.8567 19.8338 18.6663 19.6099L12.8206 12.7378L12.1848 13.9399C12.0606 14.1746 11.8536 14.3539 11.6047 14.4448L5.25513 16.8179C4.97847 16.919 4.7296 16.8965 4.47778 16.6021C4.22584 16.3072 4.24282 16.0569 4.38599 15.7993L7.72388 9.90186C7.85252 9.67029 8.06227 9.49427 8.31274 9.40869L9.60962 8.9624L8.14185 7.23682C7.95027 7.01159 7.9784 6.6736 8.20435 6.48291C8.42903 6.29341 8.76482 6.32063 8.95532 6.54443L10.551 8.42139L11.2913 7.02783C11.4149 6.79369 11.6224 6.61387 11.8713 6.52295L18.217 4.14697ZM8.69946 10.4683L5.93188 15.3599L11.1975 13.3921L12.0344 11.814L10.387 9.88916L8.69946 10.4683ZM12.2786 7.57568L11.4426 9.15283L13.0862 11.0786L14.7756 10.4985L17.5422 5.604L12.2786 7.57568Z" fill="#6F3F48"/>
</svg>
