<svg preserveAspectRatio="none" overflow="visible" style="display: block;" width="90" height="90" viewBox="0 0 90 90" fill="none" xmlns="http://www.w3.org/2000/svg">
<g id="Profile / Joyrneys">
<path id="Union" d="M82.8229 26.1545L71.4906 37.4867C71.2025 37.7749 70.7683 37.8594 70.3931 37.7003L68.7432 37.0007C68.5081 36.901 68.3201 36.7152 68.2176 36.4814L67.4682 34.7709C67.3029 34.3937 67.3857 33.9538 67.6769 33.6626L71.8189 29.5189C68.4118 30.1981 65.5538 31.3718 63.1441 32.9238C59.2004 35.4642 56.2635 39.1376 54.0932 43.7326C49.779 52.8665 48.6207 60.8641 48.5784 73.8849C48.5769 74.3326 48.2795 74.7295 47.8486 74.851L45.2698 75.5784C45.0933 75.6282 44.9066 75.6285 44.73 75.5793L42.1089 74.8493C41.6764 74.7288 41.3774 74.3313 41.376 73.8823C41.3351 60.8631 40.2207 52.8659 35.9068 43.7326C33.7365 39.1376 30.7996 35.4642 26.8559 32.9238C24.4462 31.3718 21.5882 30.1981 18.1811 29.5189L22.3158 33.6553C22.6106 33.9501 22.6914 34.3969 22.5187 34.7764L21.7369 36.4944C21.6341 36.7203 21.4509 36.9 21.2229 36.9983L19.6094 37.6945C19.2331 37.8569 18.7959 37.7732 18.5061 37.4835L7.17715 26.1545L18.543 14.7887C18.814 14.5177 19.2161 14.4254 19.5782 14.5512L21.1565 15.0994C21.4242 15.1924 21.64 15.3947 21.75 15.6559L22.5449 17.5438C22.7027 17.9185 22.6179 18.3514 22.3304 18.6389L17.1035 23.8658C22.0108 24.5516 26.2143 26.0877 29.7809 28.3852C34.7439 31.5823 38.2844 36.1216 40.79 41.4264C42.7408 45.5566 44.0846 50.2024 45 55.1426C45.9154 50.2024 47.2592 45.5566 49.21 41.4264C51.7156 36.1216 55.2561 31.5823 60.2191 28.3852C63.7857 26.0877 67.9892 24.5516 72.8965 23.8658L67.6628 18.6321C67.3787 18.348 67.2922 17.9216 67.4431 17.5493L68.2056 15.6687C68.3146 15.3999 68.5348 15.1917 68.8093 15.098L70.4243 14.5468C70.7852 14.4236 71.1847 14.5164 71.4544 14.786L82.8229 26.1545Z" fill="#4F2340"/>
</g>
</svg>
